<svg id="Capa_1" data-name="Capa 1" xmlns="http://www.w3.org/2000/svg" viewBox="0 0 654.55 148.9"><defs><style>.cls-1{fill:#717171;fill-rule:evenodd;}.cls-2{fill:#009fdd;}.cls-3{fill:#00a3dd;}.cls-4{fill:#8363a8;}.cls-5{fill:#53c1dc;}</style></defs><path class="cls-1" d="M225.64,15.94h0a2,2,0,0,1,2,2V131a2,2,0,0,1-3.9,0V17.89a2,2,0,0,1,1.95-2"/><path class="cls-1" d="M512.21,89.67l6,.22.33-34.45c.89,1.74,4.11,5.67,5.66,7.85l18.21,26.19h7V46.58h-5.85V80.89c-2.69-2.51-23.42-33.34-23.42-33.34l-7.78.11Z"/><path class="cls-1" d="M477,46.84c-28.15,7-17.56,50.41,11.46,42.56C498.83,86.56,506.8,76,503.64,62.45c-2.51-10.91-13.21-19-26.63-15.61m-10.25,23.9c-3.06-22.48,28.69-26.62,31.31-5.13,2.73,23.13-28.59,25.53-31.31,5.13"/><path class="cls-1" d="M426.4,89.37l6,.11L432.6,71l7-.11c1.76,3.42,9.24,16.33,11.47,18.64h7.25c-2.92-6-10.06-13.56-12.28-19.52,12.4-1.65,12.05-13.67,8.31-18.42-4.57-5.73-18.14-5.18-27.86-4.52Zm6-37.18c7.31-.55,16.69-1.09,16.47,6.87-.22,7.53-9.16,7-16.47,6.44Z"/><polygon class="cls-1" points="315.46 88.51 343.72 88.61 343.83 83.63 321.2 83.53 321.31 69.98 340.7 69.98 340.7 65.1 321.2 65 321.2 52.43 342.62 52.43 342.84 46.58 315.35 46.58 315.46 88.51"/><polygon class="cls-1" points="247.96 88.51 276.99 88.51 277.21 83.63 253.92 83.53 253.92 69.98 272.2 69.98 272.51 65.1 253.92 65 253.92 52.43 275.75 52.43 275.97 46.58 248.07 46.58 247.96 88.51"/><path class="cls-1" d="M385.69,83a23,23,0,0,0-4.48-3.6c-3.6,3.82-8.83,7.64-17,4.47-16.58-6.54-10.47-35.24,8.29-32.08,3.71.66,5.68,2.84,7.86,4.37,1.64-1,3.06-2.18,4.58-3.06-4.58-11.23-37.1-10.47-36.44,15.82.66,24.77,32.08,25.54,37.21,14.08"/><path class="cls-1" d="M610.78,83l-4.25-3.71c-3.82,3.38-8.3,7.86-16.92,4.69-21-7.85-6.11-45.61,15.72-27.93,1.85-.87,3.6-1.86,4.58-4.15-15.6-13-36.88-2.83-36.44,17s25.2,29,37.31,14.08"/><polygon class="cls-1" points="388.2 52.43 401.16 52.43 401.27 89.48 407.01 89.48 407.99 53.39 407.99 52.43 420.71 52.43 420.82 46.58 388.31 46.58 388.2 52.43"/><polygon class="cls-1" points="284.15 88.51 307.51 88.61 307.61 83.63 290 83.63 290.11 46.58 284.15 46.58 284.15 88.51"/><polygon class="cls-1" points="559.02 90.26 564.98 90.15 565.1 46.09 559.13 45.98 559.02 90.26"/><path class="cls-2" d="M74.63,88.64V39.91a14.79,14.79,0,1,0-29.57,0V69.78a2.43,2.43,0,0,0-1.29,2.15,2.46,2.46,0,1,0,4.92,0,2.42,2.42,0,0,0-1.29-2.15V39.91a12.45,12.45,0,0,1,24.9,0V88.63a2.46,2.46,0,1,0,2.33,0"/><path class="cls-3" d="M199.18,103.6,162,33a14.79,14.79,0,0,0-26.13-.07l-7.58,14.19a2.45,2.45,0,1,0,2.07,1.11L137.9,34a12.44,12.44,0,0,1,22,.06l37.23,70.59a2.45,2.45,0,1,0,2.07-1.09"/><path class="cls-4" d="M198.86,117.22a2.45,2.45,0,0,0-2.45,2.45,2.41,2.41,0,0,0,.13.67,12.23,12.23,0,0,1-3.63,3.08,12.43,12.43,0,0,1-16.81-5.2L149.83,68.4a1.15,1.15,0,0,0-1-.62h0a1.16,1.16,0,0,0-1,.61l-5.71,10.68a2.46,2.46,0,1,0,2.47,2.46,2.38,2.38,0,0,0-.43-1.31l4.69-8.77L174,119.31a14.52,14.52,0,0,0,24.17,2.7,2.49,2.49,0,0,0,.67.13,2.46,2.46,0,1,0,0-4.92"/><path class="cls-4" d="M73.81,123.57a2.45,2.45,0,0,0-2.15,1.28H59.85a12.45,12.45,0,0,1-12.44-12.44V84.72a2.45,2.45,0,0,0-1.17-4.6,2.46,2.46,0,0,0-2.47,2.45,2.42,2.42,0,0,0,1.29,2.15v27.69A14.81,14.81,0,0,0,59.85,127.2H71.66a2.45,2.45,0,1,0,2.15-3.63"/><path class="cls-3" d="M147.58,89.82a2.29,2.29,0,0,0-2,1.29h-10L121.1,118.28a12.41,12.41,0,0,1-11,6.57H87.05a2.43,2.43,0,0,0-2.12-1.28,2.46,2.46,0,1,0,2.12,3.63h23.07a14.75,14.75,0,0,0,13-7.82L137,93.45h8.44a2.43,2.43,0,0,0,2.12,1.28,2.46,2.46,0,1,0,0-4.91"/><path class="cls-4" d="M125.42,59.51a2.46,2.46,0,0,0-4.92,0,2.42,2.42,0,0,0,.41,1.35L101.25,97.63H84.62a2.45,2.45,0,1,0,0,2.34h18L123,62a2.45,2.45,0,0,0,2.44-2.45"/><path class="cls-5" d="M186.06,108.68h0L150.2,45.43a2.38,2.38,0,0,0,.4-1.26,2.46,2.46,0,1,0-4.91,0,2.37,2.37,0,0,0,.37,1.23l-37.32,63.41a2.28,2.28,0,0,0-.63-.13A2.43,2.43,0,0,0,106,110H62.14A2.45,2.45,0,0,0,61,108.9v-68a2.46,2.46,0,1,0-2.35,0v68.27a2.42,2.42,0,0,0-1.11,2,2.44,2.44,0,0,0,4.58,1.17H106a2.43,2.43,0,0,0,2.12,1.28,2.32,2.32,0,0,0,2.33-3.06l37.63-63.92h.11L184,109.87a2.33,2.33,0,0,0-.4,1.27,2.46,2.46,0,1,0,2.46-2.46"/></svg>